# xmcd
#
# Track frame offsets:
#	150
#	17662
#	33155
#	52992
#	74937
#	94940
#	113732
#	133707
#	151117
#	168987
#	189302
#	209545
#	231490
#
# Disc length: 3314 seconds
#
# Revision: 1
# Processed by: cddbd v1.4PL0 Copyright (c) Steve Scherf et al.
# Submitted via: audiograbber 1.81.02
#
DISCID=b10cf00d
DTITLE=Tyrese - Tyrese
DYEAR=1900
DGENRE=Hip-Hop
TTITLE0=Nobody else
TTITLE1=Tell me, tell me
TTITLE2=Promises
TTITLE3=Sweet Lady
TTITLE4=Lately
TTITLE5=Give love a try
TTITLE6=do you need
TTITLE7=You get yours
TTITLE8=Ain´t nothing like a jones
TTITLE9=taste my love
TTITLE10=I can´t go on
TTITLE11=Stay in touch
TTITLE12=Sweet Lady (Darkchild remix)
EXTD=
EXTT0=
EXTT1=
EXTT2=
EXTT3=
EXTT4=
EXTT5=
EXTT6=
EXTT7=
EXTT8=
EXTT9=
EXTT10=
EXTT11=
EXTT12=
PLAYORDER=
